<?xml version="1.0" encoding="utf-8" standalone="no"?>
<!DOCTYPE svg PUBLIC "-//W3C//DTD SVG 1.1//EN"
  "http://www.w3.org/Graphics/SVG/1.1/DTD/svg11.dtd">
<svg xmlns:xlink="http://www.w3.org/1999/xlink" width="394.423125pt" height="297.608208pt" viewBox="0 0 394.423125 297.608208" xmlns="http://www.w3.org/2000/svg" version="1.1">
 <metadata>
  <rdf:RDF xmlns:dc="http://purl.org/dc/elements/1.1/" xmlns:cc="http://creativecommons.org/ns#" xmlns:rdf="http://www.w3.org/1999/02/22-rdf-syntax-ns#">
   <cc:Work>
    <dc:type rdf:resource="http://purl.org/dc/dcmitype/StillImage"/>
    <dc:date>2023-12-09T13:23:56.205905</dc:date>
    <dc:format>image/svg+xml</dc:format>
    <dc:creator>
     <cc:Agent>
      <dc:title>Matplotlib v3.8.0, https://matplotlib.org/</dc:title>
     </cc:Agent>
    </dc:creator>
   </cc:Work>
  </rdf:RDF>
 </metadata>
 <defs>
  <style type="text/css">*{stroke-linejoin: round; stroke-linecap: butt}</style>
 </defs>
 <g id="figure_1">
  <g id="patch_1">
   <path d="M 0 297.608208 
L 394.423125 297.608208 
L 394.423125 0 
L 0 0 
z
" style="fill: #ffffff"/>
  </g>
  <g id="axes_1">
   <g id="patch_2">
    <path d="M 30.103125 273.730083 
L 387.223125 273.730083 
L 387.223125 7.618083 
L 30.103125 7.618083 
z
" style="fill: #ffffff"/>
   </g>
   <g id="PathCollection_1">
    <defs>
     <path id="mc86e7ecb90" d="M 0 1.581139 
C 0.419323 1.581139 0.821528 1.41454 1.118034 1.118034 
C 1.41454 0.821528 1.581139 0.419323 1.581139 0 
C 1.581139 -0.419323 1.41454 -0.821528 1.118034 -1.118034 
C 0.821528 -1.41454 0.419323 -1.581139 0 -1.581139 
C -0.419323 -1.581139 -0.821528 -1.41454 -1.118034 -1.118034 
C -1.41454 -0.821528 -1.581139 -0.419323 -1.581139 0 
C -1.581139 0.419323 -1.41454 0.821528 -1.118034 1.118034 
C -0.821528 1.41454 -0.419323 1.581139 0 1.581139 
z
" style="stroke: #0000ff"/>
    </defs>
    <g clip-path="url(#pcdd5a61d5a)">
     <use xlink:href="#mc86e7ecb90" x="46.335852" y="84.371068" style="fill: #0000ff; stroke: #0000ff"/>
     <use xlink:href="#mc86e7ecb90" x="49.615191" y="124.63373" style="fill: #0000ff; stroke: #0000ff"/>
     <use xlink:href="#mc86e7ecb90" x="52.89453" y="93.835616" style="fill: #0000ff; stroke: #0000ff"/>
     <use xlink:href="#mc86e7ecb90" x="56.173869" y="207.074114" style="fill: #0000ff; stroke: #0000ff"/>
     <use xlink:href="#mc86e7ecb90" x="59.453208" y="164.064317" style="fill: #0000ff; stroke: #0000ff"/>
     <use xlink:href="#mc86e7ecb90" x="62.732546" y="108.310459" style="fill: #0000ff; stroke: #0000ff"/>
     <use xlink:href="#mc86e7ecb90" x="66.011885" y="187.020101" style="fill: #0000ff; stroke: #0000ff"/>
     <use xlink:href="#mc86e7ecb90" x="69.291224" y="209.119343" style="fill: #0000ff; stroke: #0000ff"/>
     <use xlink:href="#mc86e7ecb90" x="72.570563" y="154.994683" style="fill: #0000ff; stroke: #0000ff"/>
     <use xlink:href="#mc86e7ecb90" x="75.849902" y="133.987374" style="fill: #0000ff; stroke: #0000ff"/>
     <use xlink:href="#mc86e7ecb90" x="79.129241" y="178.799121" style="fill: #0000ff; stroke: #0000ff"/>
     <use xlink:href="#mc86e7ecb90" x="82.40858" y="169.387159" style="fill: #0000ff; stroke: #0000ff"/>
     <use xlink:href="#mc86e7ecb90" x="85.687918" y="81.753355" style="fill: #0000ff; stroke: #0000ff"/>
     <use xlink:href="#mc86e7ecb90" x="88.967257" y="169.08215" style="fill: #0000ff; stroke: #0000ff"/>
     <use xlink:href="#mc86e7ecb90" x="92.246596" y="133.390773" style="fill: #0000ff; stroke: #0000ff"/>
     <use xlink:href="#mc86e7ecb90" x="95.525935" y="162.920393" style="fill: #0000ff; stroke: #0000ff"/>
     <use xlink:href="#mc86e7ecb90" x="98.805274" y="160.88513" style="fill: #0000ff; stroke: #0000ff"/>
     <use xlink:href="#mc86e7ecb90" x="102.084613" y="190.851775" style="fill: #0000ff; stroke: #0000ff"/>
     <use xlink:href="#mc86e7ecb90" x="105.363951" y="208.471907" style="fill: #0000ff; stroke: #0000ff"/>
     <use xlink:href="#mc86e7ecb90" x="108.64329" y="96.554713" style="fill: #0000ff; stroke: #0000ff"/>
     <use xlink:href="#mc86e7ecb90" x="111.922629" y="83.747545" style="fill: #0000ff; stroke: #0000ff"/>
     <use xlink:href="#mc86e7ecb90" x="115.201968" y="77.923012" style="fill: #0000ff; stroke: #0000ff"/>
     <use xlink:href="#mc86e7ecb90" x="118.481307" y="175.834116" style="fill: #0000ff; stroke: #0000ff"/>
     <use xlink:href="#mc86e7ecb90" x="121.760646" y="54.827405" style="fill: #0000ff; stroke: #0000ff"/>
     <use xlink:href="#mc86e7ecb90" x="125.039985" y="129.010527" style="fill: #0000ff; stroke: #0000ff"/>
     <use xlink:href="#mc86e7ecb90" x="128.319323" y="91.524327" style="fill: #0000ff; stroke: #0000ff"/>
     <use xlink:href="#mc86e7ecb90" x="131.598662" y="209.381967" style="fill: #0000ff; stroke: #0000ff"/>
     <use xlink:href="#mc86e7ecb90" x="134.878001" y="141.168613" style="fill: #0000ff; stroke: #0000ff"/>
     <use xlink:href="#mc86e7ecb90" x="138.15734" y="170.460434" style="fill: #0000ff; stroke: #0000ff"/>
     <use xlink:href="#mc86e7ecb90" x="141.436679" y="130.149608" style="fill: #0000ff; stroke: #0000ff"/>
     <use xlink:href="#mc86e7ecb90" x="144.716018" y="168.192602" style="fill: #0000ff; stroke: #0000ff"/>
     <use xlink:href="#mc86e7ecb90" x="147.995356" y="221.978451" style="fill: #0000ff; stroke: #0000ff"/>
     <use xlink:href="#mc86e7ecb90" x="151.274695" y="142.556825" style="fill: #0000ff; stroke: #0000ff"/>
     <use xlink:href="#mc86e7ecb90" x="154.554034" y="147.439833" style="fill: #0000ff; stroke: #0000ff"/>
     <use xlink:href="#mc86e7ecb90" x="157.833373" y="128.00302" style="fill: #0000ff; stroke: #0000ff"/>
     <use xlink:href="#mc86e7ecb90" x="161.112712" y="201.476242" style="fill: #0000ff; stroke: #0000ff"/>
     <use xlink:href="#mc86e7ecb90" x="164.392051" y="145.009125" style="fill: #0000ff; stroke: #0000ff"/>
     <use xlink:href="#mc86e7ecb90" x="167.671389" y="154.202726" style="fill: #0000ff; stroke: #0000ff"/>
     <use xlink:href="#mc86e7ecb90" x="170.950728" y="184.473928" style="fill: #0000ff; stroke: #0000ff"/>
     <use xlink:href="#mc86e7ecb90" x="174.230067" y="163.621486" style="fill: #0000ff; stroke: #0000ff"/>
     <use xlink:href="#mc86e7ecb90" x="177.509406" y="231.096395" style="fill: #0000ff; stroke: #0000ff"/>
     <use xlink:href="#mc86e7ecb90" x="180.788745" y="158.981554" style="fill: #0000ff; stroke: #0000ff"/>
     <use xlink:href="#mc86e7ecb90" x="184.068084" y="199.501933" style="fill: #0000ff; stroke: #0000ff"/>
     <use xlink:href="#mc86e7ecb90" x="187.347423" y="184.850355" style="fill: #0000ff; stroke: #0000ff"/>
     <use xlink:href="#mc86e7ecb90" x="190.626761" y="64.535789" style="fill: #0000ff; stroke: #0000ff"/>
     <use xlink:href="#mc86e7ecb90" x="193.9061" y="53.94178" style="fill: #0000ff; stroke: #0000ff"/>
     <use xlink:href="#mc86e7ecb90" x="197.185439" y="178.782938" style="fill: #0000ff; stroke: #0000ff"/>
     <use xlink:href="#mc86e7ecb90" x="200.464778" y="153.361622" style="fill: #0000ff; stroke: #0000ff"/>
     <use xlink:href="#mc86e7ecb90" x="203.744117" y="95.163111" style="fill: #0000ff; stroke: #0000ff"/>
     <use xlink:href="#mc86e7ecb90" x="207.023456" y="209.923163" style="fill: #0000ff; stroke: #0000ff"/>
     <use xlink:href="#mc86e7ecb90" x="210.302794" y="132.25167" style="fill: #0000ff; stroke: #0000ff"/>
     <use xlink:href="#mc86e7ecb90" x="213.582133" y="224.1325" style="fill: #0000ff; stroke: #0000ff"/>
     <use xlink:href="#mc86e7ecb90" x="216.861472" y="78.023337" style="fill: #0000ff; stroke: #0000ff"/>
     <use xlink:href="#mc86e7ecb90" x="220.140811" y="219.236462" style="fill: #0000ff; stroke: #0000ff"/>
     <use xlink:href="#mc86e7ecb90" x="223.42015" y="106.202206" style="fill: #0000ff; stroke: #0000ff"/>
     <use xlink:href="#mc86e7ecb90" x="226.699489" y="171.848297" style="fill: #0000ff; stroke: #0000ff"/>
     <use xlink:href="#mc86e7ecb90" x="229.978827" y="136.467356" style="fill: #0000ff; stroke: #0000ff"/>
     <use xlink:href="#mc86e7ecb90" x="233.258166" y="189.383675" style="fill: #0000ff; stroke: #0000ff"/>
     <use xlink:href="#mc86e7ecb90" x="236.537505" y="206.144215" style="fill: #0000ff; stroke: #0000ff"/>
     <use xlink:href="#mc86e7ecb90" x="239.816844" y="132.131922" style="fill: #0000ff; stroke: #0000ff"/>
     <use xlink:href="#mc86e7ecb90" x="243.096183" y="121.160514" style="fill: #0000ff; stroke: #0000ff"/>
     <use xlink:href="#mc86e7ecb90" x="246.375522" y="124.435951" style="fill: #0000ff; stroke: #0000ff"/>
     <use xlink:href="#mc86e7ecb90" x="249.654861" y="187.872201" style="fill: #0000ff; stroke: #0000ff"/>
     <use xlink:href="#mc86e7ecb90" x="252.934199" y="198.521224" style="fill: #0000ff; stroke: #0000ff"/>
     <use xlink:href="#mc86e7ecb90" x="256.213538" y="196.179956" style="fill: #0000ff; stroke: #0000ff"/>
     <use xlink:href="#mc86e7ecb90" x="259.492877" y="238.316677" style="fill: #0000ff; stroke: #0000ff"/>
     <use xlink:href="#mc86e7ecb90" x="262.772216" y="160.819229" style="fill: #0000ff; stroke: #0000ff"/>
     <use xlink:href="#mc86e7ecb90" x="266.051555" y="138.056501" style="fill: #0000ff; stroke: #0000ff"/>
     <use xlink:href="#mc86e7ecb90" x="269.330894" y="133.479036" style="fill: #0000ff; stroke: #0000ff"/>
     <use xlink:href="#mc86e7ecb90" x="272.610232" y="213.824406" style="fill: #0000ff; stroke: #0000ff"/>
     <use xlink:href="#mc86e7ecb90" x="275.889571" y="239.016334" style="fill: #0000ff; stroke: #0000ff"/>
     <use xlink:href="#mc86e7ecb90" x="279.16891" y="165.052715" style="fill: #0000ff; stroke: #0000ff"/>
     <use xlink:href="#mc86e7ecb90" x="282.448249" y="92.143853" style="fill: #0000ff; stroke: #0000ff"/>
     <use xlink:href="#mc86e7ecb90" x="285.727588" y="193.785072" style="fill: #0000ff; stroke: #0000ff"/>
     <use xlink:href="#mc86e7ecb90" x="289.006927" y="230.630868" style="fill: #0000ff; stroke: #0000ff"/>
     <use xlink:href="#mc86e7ecb90" x="292.286265" y="155.204949" style="fill: #0000ff; stroke: #0000ff"/>
     <use xlink:href="#mc86e7ecb90" x="295.565604" y="200.189494" style="fill: #0000ff; stroke: #0000ff"/>
     <use xlink:href="#mc86e7ecb90" x="298.844943" y="158.56971" style="fill: #0000ff; stroke: #0000ff"/>
     <use xlink:href="#mc86e7ecb90" x="302.124282" y="175.815643" style="fill: #0000ff; stroke: #0000ff"/>
     <use xlink:href="#mc86e7ecb90" x="305.403621" y="228.821668" style="fill: #0000ff; stroke: #0000ff"/>
     <use xlink:href="#mc86e7ecb90" x="308.68296" y="98.143458" style="fill: #0000ff; stroke: #0000ff"/>
     <use xlink:href="#mc86e7ecb90" x="311.962299" y="222.933848" style="fill: #0000ff; stroke: #0000ff"/>
     <use xlink:href="#mc86e7ecb90" x="315.241637" y="203.731368" style="fill: #0000ff; stroke: #0000ff"/>
     <use xlink:href="#mc86e7ecb90" x="318.520976" y="170.40068" style="fill: #0000ff; stroke: #0000ff"/>
     <use xlink:href="#mc86e7ecb90" x="321.800315" y="220.338373" style="fill: #0000ff; stroke: #0000ff"/>
     <use xlink:href="#mc86e7ecb90" x="325.079654" y="133.267828" style="fill: #0000ff; stroke: #0000ff"/>
     <use xlink:href="#mc86e7ecb90" x="328.358993" y="192.26226" style="fill: #0000ff; stroke: #0000ff"/>
     <use xlink:href="#mc86e7ecb90" x="331.638332" y="177.302874" style="fill: #0000ff; stroke: #0000ff"/>
     <use xlink:href="#mc86e7ecb90" x="334.91767" y="134.609533" style="fill: #0000ff; stroke: #0000ff"/>
     <use xlink:href="#mc86e7ecb90" x="338.197009" y="246.398173" style="fill: #0000ff; stroke: #0000ff"/>
     <use xlink:href="#mc86e7ecb90" x="341.476348" y="147.546355" style="fill: #0000ff; stroke: #0000ff"/>
     <use xlink:href="#mc86e7ecb90" x="344.755687" y="261.634083" style="fill: #0000ff; stroke: #0000ff"/>
     <use xlink:href="#mc86e7ecb90" x="348.035026" y="241.487866" style="fill: #0000ff; stroke: #0000ff"/>
     <use xlink:href="#mc86e7ecb90" x="351.314365" y="196.751739" style="fill: #0000ff; stroke: #0000ff"/>
     <use xlink:href="#mc86e7ecb90" x="354.593704" y="216.399696" style="fill: #0000ff; stroke: #0000ff"/>
     <use xlink:href="#mc86e7ecb90" x="357.873042" y="153.06199" style="fill: #0000ff; stroke: #0000ff"/>
     <use xlink:href="#mc86e7ecb90" x="361.152381" y="19.714083" style="fill: #0000ff; stroke: #0000ff"/>
     <use xlink:href="#mc86e7ecb90" x="364.43172" y="174.665465" style="fill: #0000ff; stroke: #0000ff"/>
     <use xlink:href="#mc86e7ecb90" x="367.711059" y="176.653158" style="fill: #0000ff; stroke: #0000ff"/>
     <use xlink:href="#mc86e7ecb90" x="370.990398" y="72.040756" style="fill: #0000ff; stroke: #0000ff"/>
    </g>
   </g>
   <g id="matplotlib.axis_1">
    <g id="xtick_1">
     <g id="line2d_1">
      <path d="M 46.335852 273.730083 
L 46.335852 7.618083 
" clip-path="url(#pcdd5a61d5a)" style="fill: none; stroke-dasharray: 0.8,1.32; stroke-dashoffset: 0; stroke: #b0b0b0; stroke-width: 0.8"/>
     </g>
     <g id="line2d_2">
      <defs>
       <path id="mc3670b7ebd" d="M 0 0 
L 0 3.5 
" style="stroke: #000000; stroke-width: 0.8"/>
      </defs>
      <g>
       <use xlink:href="#mc3670b7ebd" x="46.335852" y="273.730083" style="stroke: #000000; stroke-width: 0.8"/>
      </g>
     </g>
     <g id="text_1">
      <!-- 0.0 -->
      <g transform="translate(38.38429 288.32852) scale(0.1 -0.1)">
       <defs>
        <path id="DejaVuSans-30" d="M 2034 4250 
Q 1547 4250 1301 3770 
Q 1056 3291 1056 2328 
Q 1056 1369 1301 889 
Q 1547 409 2034 409 
Q 2525 409 2770 889 
Q 3016 1369 3016 2328 
Q 3016 3291 2770 3770 
Q 2525 4250 2034 4250 
z
M 2034 4750 
Q 2819 4750 3233 4129 
Q 3647 3509 3647 2328 
Q 3647 1150 3233 529 
Q 2819 -91 2034 -91 
Q 1250 -91 836 529 
Q 422 1150 422 2328 
Q 422 3509 836 4129 
Q 1250 4750 2034 4750 
z
" transform="scale(0.015625)"/>
        <path id="DejaVuSans-2e" d="M 684 794 
L 1344 794 
L 1344 0 
L 684 0 
L 684 794 
z
" transform="scale(0.015625)"/>
       </defs>
       <use xlink:href="#DejaVuSans-30"/>
       <use xlink:href="#DejaVuSans-2e" x="63.623047"/>
       <use xlink:href="#DejaVuSans-30" x="95.410156"/>
      </g>
     </g>
    </g>
    <g id="xtick_2">
     <g id="line2d_3">
      <path d="M 111.922629 273.730083 
L 111.922629 7.618083 
" clip-path="url(#pcdd5a61d5a)" style="fill: none; stroke-dasharray: 0.8,1.32; stroke-dashoffset: 0; stroke: #b0b0b0; stroke-width: 0.8"/>
     </g>
     <g id="line2d_4">
      <g>
       <use xlink:href="#mc3670b7ebd" x="111.922629" y="273.730083" style="stroke: #000000; stroke-width: 0.8"/>
      </g>
     </g>
     <g id="text_2">
      <!-- 0.2 -->
      <g transform="translate(103.971067 288.32852) scale(0.1 -0.1)">
       <defs>
        <path id="DejaVuSans-32" d="M 1228 531 
L 3431 531 
L 3431 0 
L 469 0 
L 469 531 
Q 828 903 1448 1529 
Q 2069 2156 2228 2338 
Q 2531 2678 2651 2914 
Q 2772 3150 2772 3378 
Q 2772 3750 2511 3984 
Q 2250 4219 1831 4219 
Q 1534 4219 1204 4116 
Q 875 4013 500 3803 
L 500 4441 
Q 881 4594 1212 4672 
Q 1544 4750 1819 4750 
Q 2544 4750 2975 4387 
Q 3406 4025 3406 3419 
Q 3406 3131 3298 2873 
Q 3191 2616 2906 2266 
Q 2828 2175 2409 1742 
Q 1991 1309 1228 531 
z
" transform="scale(0.015625)"/>
       </defs>
       <use xlink:href="#DejaVuSans-30"/>
       <use xlink:href="#DejaVuSans-2e" x="63.623047"/>
       <use xlink:href="#DejaVuSans-32" x="95.410156"/>
      </g>
     </g>
    </g>
    <g id="xtick_3">
     <g id="line2d_5">
      <path d="M 177.509406 273.730083 
L 177.509406 7.618083 
" clip-path="url(#pcdd5a61d5a)" style="fill: none; stroke-dasharray: 0.8,1.32; stroke-dashoffset: 0; stroke: #b0b0b0; stroke-width: 0.8"/>
     </g>
     <g id="line2d_6">
      <g>
       <use xlink:href="#mc3670b7ebd" x="177.509406" y="273.730083" style="stroke: #000000; stroke-width: 0.8"/>
      </g>
     </g>
     <g id="text_3">
      <!-- 0.4 -->
      <g transform="translate(169.557843 288.32852) scale(0.1 -0.1)">
       <defs>
        <path id="DejaVuSans-34" d="M 2419 4116 
L 825 1625 
L 2419 1625 
L 2419 4116 
z
M 2253 4666 
L 3047 4666 
L 3047 1625 
L 3713 1625 
L 3713 1100 
L 3047 1100 
L 3047 0 
L 2419 0 
L 2419 1100 
L 313 1100 
L 313 1709 
L 2253 4666 
z
" transform="scale(0.015625)"/>
       </defs>
       <use xlink:href="#DejaVuSans-30"/>
       <use xlink:href="#DejaVuSans-2e" x="63.623047"/>
       <use xlink:href="#DejaVuSans-34" x="95.410156"/>
      </g>
     </g>
    </g>
    <g id="xtick_4">
     <g id="line2d_7">
      <path d="M 243.096183 273.730083 
L 243.096183 7.618083 
" clip-path="url(#pcdd5a61d5a)" style="fill: none; stroke-dasharray: 0.8,1.32; stroke-dashoffset: 0; stroke: #b0b0b0; stroke-width: 0.8"/>
     </g>
     <g id="line2d_8">
      <g>
       <use xlink:href="#mc3670b7ebd" x="243.096183" y="273.730083" style="stroke: #000000; stroke-width: 0.8"/>
      </g>
     </g>
     <g id="text_4">
      <!-- 0.6 -->
      <g transform="translate(235.14462 288.32852) scale(0.1 -0.1)">
       <defs>
        <path id="DejaVuSans-36" d="M 2113 2584 
Q 1688 2584 1439 2293 
Q 1191 2003 1191 1497 
Q 1191 994 1439 701 
Q 1688 409 2113 409 
Q 2538 409 2786 701 
Q 3034 994 3034 1497 
Q 3034 2003 2786 2293 
Q 2538 2584 2113 2584 
z
M 3366 4563 
L 3366 3988 
Q 3128 4100 2886 4159 
Q 2644 4219 2406 4219 
Q 1781 4219 1451 3797 
Q 1122 3375 1075 2522 
Q 1259 2794 1537 2939 
Q 1816 3084 2150 3084 
Q 2853 3084 3261 2657 
Q 3669 2231 3669 1497 
Q 3669 778 3244 343 
Q 2819 -91 2113 -91 
Q 1303 -91 875 529 
Q 447 1150 447 2328 
Q 447 3434 972 4092 
Q 1497 4750 2381 4750 
Q 2619 4750 2861 4703 
Q 3103 4656 3366 4563 
z
" transform="scale(0.015625)"/>
       </defs>
       <use xlink:href="#DejaVuSans-30"/>
       <use xlink:href="#DejaVuSans-2e" x="63.623047"/>
       <use xlink:href="#DejaVuSans-36" x="95.410156"/>
      </g>
     </g>
    </g>
    <g id="xtick_5">
     <g id="line2d_9">
      <path d="M 308.68296 273.730083 
L 308.68296 7.618083 
" clip-path="url(#pcdd5a61d5a)" style="fill: none; stroke-dasharray: 0.8,1.32; stroke-dashoffset: 0; stroke: #b0b0b0; stroke-width: 0.8"/>
     </g>
     <g id="line2d_10">
      <g>
       <use xlink:href="#mc3670b7ebd" x="308.68296" y="273.730083" style="stroke: #000000; stroke-width: 0.8"/>
      </g>
     </g>
     <g id="text_5">
      <!-- 0.8 -->
      <g transform="translate(300.731397 288.32852) scale(0.1 -0.1)">
       <defs>
        <path id="DejaVuSans-38" d="M 2034 2216 
Q 1584 2216 1326 1975 
Q 1069 1734 1069 1313 
Q 1069 891 1326 650 
Q 1584 409 2034 409 
Q 2484 409 2743 651 
Q 3003 894 3003 1313 
Q 3003 1734 2745 1975 
Q 2488 2216 2034 2216 
z
M 1403 2484 
Q 997 2584 770 2862 
Q 544 3141 544 3541 
Q 544 4100 942 4425 
Q 1341 4750 2034 4750 
Q 2731 4750 3128 4425 
Q 3525 4100 3525 3541 
Q 3525 3141 3298 2862 
Q 3072 2584 2669 2484 
Q 3125 2378 3379 2068 
Q 3634 1759 3634 1313 
Q 3634 634 3220 271 
Q 2806 -91 2034 -91 
Q 1263 -91 848 271 
Q 434 634 434 1313 
Q 434 1759 690 2068 
Q 947 2378 1403 2484 
z
M 1172 3481 
Q 1172 3119 1398 2916 
Q 1625 2713 2034 2713 
Q 2441 2713 2670 2916 
Q 2900 3119 2900 3481 
Q 2900 3844 2670 4047 
Q 2441 4250 2034 4250 
Q 1625 4250 1398 4047 
Q 1172 3844 1172 3481 
z
" transform="scale(0.015625)"/>
       </defs>
       <use xlink:href="#DejaVuSans-30"/>
       <use xlink:href="#DejaVuSans-2e" x="63.623047"/>
       <use xlink:href="#DejaVuSans-38" x="95.410156"/>
      </g>
     </g>
    </g>
    <g id="xtick_6">
     <g id="line2d_11">
      <path d="M 374.269737 273.730083 
L 374.269737 7.618083 
" clip-path="url(#pcdd5a61d5a)" style="fill: none; stroke-dasharray: 0.8,1.32; stroke-dashoffset: 0; stroke: #b0b0b0; stroke-width: 0.8"/>
     </g>
     <g id="line2d_12">
      <g>
       <use xlink:href="#mc3670b7ebd" x="374.269737" y="273.730083" style="stroke: #000000; stroke-width: 0.8"/>
      </g>
     </g>
     <g id="text_6">
      <!-- 1.0 -->
      <g transform="translate(366.318174 288.32852) scale(0.1 -0.1)">
       <defs>
        <path id="DejaVuSans-31" d="M 794 531 
L 1825 531 
L 1825 4091 
L 703 3866 
L 703 4441 
L 1819 4666 
L 2450 4666 
L 2450 531 
L 3481 531 
L 3481 0 
L 794 0 
L 794 531 
z
" transform="scale(0.015625)"/>
       </defs>
       <use xlink:href="#DejaVuSans-31"/>
       <use xlink:href="#DejaVuSans-2e" x="63.623047"/>
       <use xlink:href="#DejaVuSans-30" x="95.410156"/>
      </g>
     </g>
    </g>
   </g>
   <g id="matplotlib.axis_2">
    <g id="ytick_1">
     <g id="line2d_13">
      <path d="M 30.103125 248.368145 
L 387.223125 248.368145 
" clip-path="url(#pcdd5a61d5a)" style="fill: none; stroke-dasharray: 0.8,1.32; stroke-dashoffset: 0; stroke: #b0b0b0; stroke-width: 0.8"/>
     </g>
     <g id="line2d_14">
      <defs>
       <path id="m93c2cf8105" d="M 0 0 
L -3.5 0 
" style="stroke: #000000; stroke-width: 0.8"/>
      </defs>
      <g>
       <use xlink:href="#m93c2cf8105" x="30.103125" y="248.368145" style="stroke: #000000; stroke-width: 0.8"/>
      </g>
     </g>
     <g id="text_7">
      <!-- 0.5 -->
      <g transform="translate(7.2 252.167364) scale(0.1 -0.1)">
       <defs>
        <path id="DejaVuSans-35" d="M 691 4666 
L 3169 4666 
L 3169 4134 
L 1269 4134 
L 1269 2991 
Q 1406 3038 1543 3061 
Q 1681 3084 1819 3084 
Q 2600 3084 3056 2656 
Q 3513 2228 3513 1497 
Q 3513 744 3044 326 
Q 2575 -91 1722 -91 
Q 1428 -91 1123 -41 
Q 819 9 494 109 
L 494 744 
Q 775 591 1075 516 
Q 1375 441 1709 441 
Q 2250 441 2565 725 
Q 2881 1009 2881 1497 
Q 2881 1984 2565 2268 
Q 2250 2553 1709 2553 
Q 1456 2553 1204 2497 
Q 953 2441 691 2322 
L 691 4666 
z
" transform="scale(0.015625)"/>
       </defs>
       <use xlink:href="#DejaVuSans-30"/>
       <use xlink:href="#DejaVuSans-2e" x="63.623047"/>
       <use xlink:href="#DejaVuSans-35" x="95.410156"/>
      </g>
     </g>
    </g>
    <g id="ytick_2">
     <g id="line2d_15">
      <path d="M 30.103125 200.89436 
L 387.223125 200.89436 
" clip-path="url(#pcdd5a61d5a)" style="fill: none; stroke-dasharray: 0.8,1.32; stroke-dashoffset: 0; stroke: #b0b0b0; stroke-width: 0.8"/>
     </g>
     <g id="line2d_16">
      <g>
       <use xlink:href="#m93c2cf8105" x="30.103125" y="200.89436" style="stroke: #000000; stroke-width: 0.8"/>
      </g>
     </g>
     <g id="text_8">
      <!-- 1.0 -->
      <g transform="translate(7.2 204.693578) scale(0.1 -0.1)">
       <use xlink:href="#DejaVuSans-31"/>
       <use xlink:href="#DejaVuSans-2e" x="63.623047"/>
       <use xlink:href="#DejaVuSans-30" x="95.410156"/>
      </g>
     </g>
    </g>
    <g id="ytick_3">
     <g id="line2d_17">
      <path d="M 30.103125 153.420574 
L 387.223125 153.420574 
" clip-path="url(#pcdd5a61d5a)" style="fill: none; stroke-dasharray: 0.8,1.32; stroke-dashoffset: 0; stroke: #b0b0b0; stroke-width: 0.8"/>
     </g>
     <g id="line2d_18">
      <g>
       <use xlink:href="#m93c2cf8105" x="30.103125" y="153.420574" style="stroke: #000000; stroke-width: 0.8"/>
      </g>
     </g>
     <g id="text_9">
      <!-- 1.5 -->
      <g transform="translate(7.2 157.219793) scale(0.1 -0.1)">
       <use xlink:href="#DejaVuSans-31"/>
       <use xlink:href="#DejaVuSans-2e" x="63.623047"/>
       <use xlink:href="#DejaVuSans-35" x="95.410156"/>
      </g>
     </g>
    </g>
    <g id="ytick_4">
     <g id="line2d_19">
      <path d="M 30.103125 105.946789 
L 387.223125 105.946789 
" clip-path="url(#pcdd5a61d5a)" style="fill: none; stroke-dasharray: 0.8,1.32; stroke-dashoffset: 0; stroke: #b0b0b0; stroke-width: 0.8"/>
     </g>
     <g id="line2d_20">
      <g>
       <use xlink:href="#m93c2cf8105" x="30.103125" y="105.946789" style="stroke: #000000; stroke-width: 0.8"/>
      </g>
     </g>
     <g id="text_10">
      <!-- 2.0 -->
      <g transform="translate(7.2 109.746008) scale(0.1 -0.1)">
       <use xlink:href="#DejaVuSans-32"/>
       <use xlink:href="#DejaVuSans-2e" x="63.623047"/>
       <use xlink:href="#DejaVuSans-30" x="95.410156"/>
      </g>
     </g>
    </g>
    <g id="ytick_5">
     <g id="line2d_21">
      <path d="M 30.103125 58.473004 
L 387.223125 58.473004 
" clip-path="url(#pcdd5a61d5a)" style="fill: none; stroke-dasharray: 0.8,1.32; stroke-dashoffset: 0; stroke: #b0b0b0; stroke-width: 0.8"/>
     </g>
     <g id="line2d_22">
      <g>
       <use xlink:href="#m93c2cf8105" x="30.103125" y="58.473004" style="stroke: #000000; stroke-width: 0.8"/>
      </g>
     </g>
     <g id="text_11">
      <!-- 2.5 -->
      <g transform="translate(7.2 62.272223) scale(0.1 -0.1)">
       <use xlink:href="#DejaVuSans-32"/>
       <use xlink:href="#DejaVuSans-2e" x="63.623047"/>
       <use xlink:href="#DejaVuSans-35" x="95.410156"/>
      </g>
     </g>
    </g>
    <g id="ytick_6">
     <g id="line2d_23">
      <path d="M 30.103125 10.999219 
L 387.223125 10.999219 
" clip-path="url(#pcdd5a61d5a)" style="fill: none; stroke-dasharray: 0.8,1.32; stroke-dashoffset: 0; stroke: #b0b0b0; stroke-width: 0.8"/>
     </g>
     <g id="line2d_24">
      <g>
       <use xlink:href="#m93c2cf8105" x="30.103125" y="10.999219" style="stroke: #000000; stroke-width: 0.8"/>
      </g>
     </g>
     <g id="text_12">
      <!-- 3.0 -->
      <g transform="translate(7.2 14.798437) scale(0.1 -0.1)">
       <defs>
        <path id="DejaVuSans-33" d="M 2597 2516 
Q 3050 2419 3304 2112 
Q 3559 1806 3559 1356 
Q 3559 666 3084 287 
Q 2609 -91 1734 -91 
Q 1441 -91 1130 -33 
Q 819 25 488 141 
L 488 750 
Q 750 597 1062 519 
Q 1375 441 1716 441 
Q 2309 441 2620 675 
Q 2931 909 2931 1356 
Q 2931 1769 2642 2001 
Q 2353 2234 1838 2234 
L 1294 2234 
L 1294 2753 
L 1863 2753 
Q 2328 2753 2575 2939 
Q 2822 3125 2822 3475 
Q 2822 3834 2567 4026 
Q 2313 4219 1838 4219 
Q 1578 4219 1281 4162 
Q 984 4106 628 3988 
L 628 4550 
Q 988 4650 1302 4700 
Q 1616 4750 1894 4750 
Q 2613 4750 3031 4423 
Q 3450 4097 3450 3541 
Q 3450 3153 3228 2886 
Q 3006 2619 2597 2516 
z
" transform="scale(0.015625)"/>
       </defs>
       <use xlink:href="#DejaVuSans-33"/>
       <use xlink:href="#DejaVuSans-2e" x="63.623047"/>
       <use xlink:href="#DejaVuSans-30" x="95.410156"/>
      </g>
     </g>
    </g>
   </g>
   <g id="line2d_25">
    <path d="M 46.335852 134.43106 
L 49.615191 134.905798 
L 52.89453 135.380536 
L 56.173869 135.855274 
L 59.453208 136.330012 
L 62.732546 136.80475 
L 66.011885 137.279487 
L 69.291224 137.754225 
L 72.570563 138.228963 
L 75.849902 138.703701 
L 79.129241 139.178439 
L 82.40858 139.653177 
L 85.687918 140.127915 
L 88.967257 140.602652 
L 92.246596 141.07739 
L 95.525935 141.552128 
L 98.805274 142.026866 
L 102.084613 142.501604 
L 105.363951 142.976342 
L 108.64329 143.45108 
L 111.922629 143.925817 
L 115.201968 144.400555 
L 118.481307 144.875293 
L 121.760646 145.350031 
L 125.039985 145.824769 
L 128.319323 146.299507 
L 131.598662 146.774245 
L 134.878001 147.248982 
L 138.15734 147.72372 
L 141.436679 148.198458 
L 144.716018 148.673196 
L 147.995356 149.147934 
L 151.274695 149.622672 
L 154.554034 150.097409 
L 157.833373 150.572147 
L 161.112712 151.046885 
L 164.392051 151.521623 
L 167.671389 151.996361 
L 170.950728 152.471099 
L 174.230067 152.945837 
L 177.509406 153.420574 
L 180.788745 153.895312 
L 184.068084 154.37005 
L 187.347423 154.844788 
L 190.626761 155.319526 
L 193.9061 155.794264 
L 197.185439 156.269002 
L 200.464778 156.743739 
L 203.744117 157.218477 
L 207.023456 157.693215 
L 210.302794 158.167953 
L 213.582133 158.642691 
L 216.861472 159.117429 
L 220.140811 159.592167 
L 223.42015 160.066904 
L 226.699489 160.541642 
L 229.978827 161.01638 
L 233.258166 161.491118 
L 236.537505 161.965856 
L 239.816844 162.440594 
L 243.096183 162.915331 
L 246.375522 163.390069 
L 249.654861 163.864807 
L 252.934199 164.339545 
L 256.213538 164.814283 
L 259.492877 165.289021 
L 262.772216 165.763759 
L 266.051555 166.238496 
L 269.330894 166.713234 
L 272.610232 167.187972 
L 275.889571 167.66271 
L 279.16891 168.137448 
L 282.448249 168.612186 
L 285.727588 169.086924 
L 289.006927 169.561661 
L 292.286265 170.036399 
L 295.565604 170.511137 
L 298.844943 170.985875 
L 302.124282 171.460613 
L 305.403621 171.935351 
L 308.68296 172.410089 
L 311.962299 172.884826 
L 315.241637 173.359564 
L 318.520976 173.834302 
L 321.800315 174.30904 
L 325.079654 174.783778 
L 328.358993 175.258516 
L 331.638332 175.733254 
L 334.91767 176.207991 
L 338.197009 176.682729 
L 341.476348 177.157467 
L 344.755687 177.632205 
L 348.035026 178.106943 
L 351.314365 178.581681 
L 354.593704 179.056418 
L 357.873042 179.531156 
L 361.152381 180.005894 
L 364.43172 180.480632 
L 367.711059 180.95537 
L 370.990398 181.430108 
" clip-path="url(#pcdd5a61d5a)" style="fill: none; stroke: #ff0000; stroke-width: 2; stroke-linecap: square"/>
   </g>
   <g id="patch_3">
    <path d="M 30.103125 273.730083 
L 30.103125 7.618083 
" style="fill: none; stroke: #000000; stroke-width: 0.8; stroke-linejoin: miter; stroke-linecap: square"/>
   </g>
   <g id="patch_4">
    <path d="M 387.223125 273.730083 
L 387.223125 7.618083 
" style="fill: none; stroke: #000000; stroke-width: 0.8; stroke-linejoin: miter; stroke-linecap: square"/>
   </g>
   <g id="patch_5">
    <path d="M 30.103125 273.730083 
L 387.223125 273.730083 
" style="fill: none; stroke: #000000; stroke-width: 0.8; stroke-linejoin: miter; stroke-linecap: square"/>
   </g>
   <g id="patch_6">
    <path d="M 30.103125 7.618083 
L 387.223125 7.618083 
" style="fill: none; stroke: #000000; stroke-width: 0.8; stroke-linejoin: miter; stroke-linecap: square"/>
   </g>
   <g id="legend_1">
    <g id="patch_7">
     <path d="M 37.103125 44.974333 
L 133.684375 44.974333 
Q 135.684375 44.974333 135.684375 42.974333 
L 135.684375 14.618083 
Q 135.684375 12.618083 133.684375 12.618083 
L 37.103125 12.618083 
Q 35.103125 12.618083 35.103125 14.618083 
L 35.103125 42.974333 
Q 35.103125 44.974333 37.103125 44.974333 
z
" style="fill: #ffffff; opacity: 0.8; stroke: #cccccc; stroke-linejoin: miter"/>
    </g>
    <g id="line2d_26">
     <path d="M 39.103125 20.71652 
L 49.103125 20.71652 
L 59.103125 20.71652 
" style="fill: none; stroke: #ff0000; stroke-width: 2; stroke-linecap: square"/>
    </g>
    <g id="text_13">
     <!-- Ground truth -->
     <g transform="translate(67.103125 24.21652) scale(0.1 -0.1)">
      <defs>
       <path id="DejaVuSans-47" d="M 3809 666 
L 3809 1919 
L 2778 1919 
L 2778 2438 
L 4434 2438 
L 4434 434 
Q 4069 175 3628 42 
Q 3188 -91 2688 -91 
Q 1594 -91 976 548 
Q 359 1188 359 2328 
Q 359 3472 976 4111 
Q 1594 4750 2688 4750 
Q 3144 4750 3555 4637 
Q 3966 4525 4313 4306 
L 4313 3634 
Q 3963 3931 3569 4081 
Q 3175 4231 2741 4231 
Q 1884 4231 1454 3753 
Q 1025 3275 1025 2328 
Q 1025 1384 1454 906 
Q 1884 428 2741 428 
Q 3075 428 3337 486 
Q 3600 544 3809 666 
z
" transform="scale(0.015625)"/>
       <path id="DejaVuSans-72" d="M 2631 2963 
Q 2534 3019 2420 3045 
Q 2306 3072 2169 3072 
Q 1681 3072 1420 2755 
Q 1159 2438 1159 1844 
L 1159 0 
L 581 0 
L 581 3500 
L 1159 3500 
L 1159 2956 
Q 1341 3275 1631 3429 
Q 1922 3584 2338 3584 
Q 2397 3584 2469 3576 
Q 2541 3569 2628 3553 
L 2631 2963 
z
" transform="scale(0.015625)"/>
       <path id="DejaVuSans-6f" d="M 1959 3097 
Q 1497 3097 1228 2736 
Q 959 2375 959 1747 
Q 959 1119 1226 758 
Q 1494 397 1959 397 
Q 2419 397 2687 759 
Q 2956 1122 2956 1747 
Q 2956 2369 2687 2733 
Q 2419 3097 1959 3097 
z
M 1959 3584 
Q 2709 3584 3137 3096 
Q 3566 2609 3566 1747 
Q 3566 888 3137 398 
Q 2709 -91 1959 -91 
Q 1206 -91 779 398 
Q 353 888 353 1747 
Q 353 2609 779 3096 
Q 1206 3584 1959 3584 
z
" transform="scale(0.015625)"/>
       <path id="DejaVuSans-75" d="M 544 1381 
L 544 3500 
L 1119 3500 
L 1119 1403 
Q 1119 906 1312 657 
Q 1506 409 1894 409 
Q 2359 409 2629 706 
Q 2900 1003 2900 1516 
L 2900 3500 
L 3475 3500 
L 3475 0 
L 2900 0 
L 2900 538 
Q 2691 219 2414 64 
Q 2138 -91 1772 -91 
Q 1169 -91 856 284 
Q 544 659 544 1381 
z
M 1991 3584 
L 1991 3584 
z
" transform="scale(0.015625)"/>
       <path id="DejaVuSans-6e" d="M 3513 2113 
L 3513 0 
L 2938 0 
L 2938 2094 
Q 2938 2591 2744 2837 
Q 2550 3084 2163 3084 
Q 1697 3084 1428 2787 
Q 1159 2491 1159 1978 
L 1159 0 
L 581 0 
L 581 3500 
L 1159 3500 
L 1159 2956 
Q 1366 3272 1645 3428 
Q 1925 3584 2291 3584 
Q 2894 3584 3203 3211 
Q 3513 2838 3513 2113 
z
" transform="scale(0.015625)"/>
       <path id="DejaVuSans-64" d="M 2906 2969 
L 2906 4863 
L 3481 4863 
L 3481 0 
L 2906 0 
L 2906 525 
Q 2725 213 2448 61 
Q 2172 -91 1784 -91 
Q 1150 -91 751 415 
Q 353 922 353 1747 
Q 353 2572 751 3078 
Q 1150 3584 1784 3584 
Q 2172 3584 2448 3432 
Q 2725 3281 2906 2969 
z
M 947 1747 
Q 947 1113 1208 752 
Q 1469 391 1925 391 
Q 2381 391 2643 752 
Q 2906 1113 2906 1747 
Q 2906 2381 2643 2742 
Q 2381 3103 1925 3103 
Q 1469 3103 1208 2742 
Q 947 2381 947 1747 
z
" transform="scale(0.015625)"/>
       <path id="DejaVuSans-20" transform="scale(0.015625)"/>
       <path id="DejaVuSans-74" d="M 1172 4494 
L 1172 3500 
L 2356 3500 
L 2356 3053 
L 1172 3053 
L 1172 1153 
Q 1172 725 1289 603 
Q 1406 481 1766 481 
L 2356 481 
L 2356 0 
L 1766 0 
Q 1100 0 847 248 
Q 594 497 594 1153 
L 594 3053 
L 172 3053 
L 172 3500 
L 594 3500 
L 594 4494 
L 1172 4494 
z
" transform="scale(0.015625)"/>
       <path id="DejaVuSans-68" d="M 3513 2113 
L 3513 0 
L 2938 0 
L 2938 2094 
Q 2938 2591 2744 2837 
Q 2550 3084 2163 3084 
Q 1697 3084 1428 2787 
Q 1159 2491 1159 1978 
L 1159 0 
L 581 0 
L 581 4863 
L 1159 4863 
L 1159 2956 
Q 1366 3272 1645 3428 
Q 1925 3584 2291 3584 
Q 2894 3584 3203 3211 
Q 3513 2838 3513 2113 
z
" transform="scale(0.015625)"/>
      </defs>
      <use xlink:href="#DejaVuSans-47"/>
      <use xlink:href="#DejaVuSans-72" x="77.490234"/>
      <use xlink:href="#DejaVuSans-6f" x="116.353516"/>
      <use xlink:href="#DejaVuSans-75" x="177.535156"/>
      <use xlink:href="#DejaVuSans-6e" x="240.914062"/>
      <use xlink:href="#DejaVuSans-64" x="304.292969"/>
      <use xlink:href="#DejaVuSans-20" x="367.769531"/>
      <use xlink:href="#DejaVuSans-74" x="399.556641"/>
      <use xlink:href="#DejaVuSans-72" x="438.765625"/>
      <use xlink:href="#DejaVuSans-75" x="479.878906"/>
      <use xlink:href="#DejaVuSans-74" x="543.257812"/>
      <use xlink:href="#DejaVuSans-68" x="582.466797"/>
     </g>
    </g>
    <g id="PathCollection_2">
     <g>
      <use xlink:href="#mc86e7ecb90" x="49.103125" y="36.269645" style="fill: #0000ff; stroke: #0000ff"/>
     </g>
    </g>
    <g id="text_14">
     <!-- Data -->
     <g transform="translate(67.103125 38.894645) scale(0.1 -0.1)">
      <defs>
       <path id="DejaVuSans-44" d="M 1259 4147 
L 1259 519 
L 2022 519 
Q 2988 519 3436 956 
Q 3884 1394 3884 2338 
Q 3884 3275 3436 3711 
Q 2988 4147 2022 4147 
L 1259 4147 
z
M 628 4666 
L 1925 4666 
Q 3281 4666 3915 4102 
Q 4550 3538 4550 2338 
Q 4550 1131 3912 565 
Q 3275 0 1925 0 
L 628 0 
L 628 4666 
z
" transform="scale(0.015625)"/>
       <path id="DejaVuSans-61" d="M 2194 1759 
Q 1497 1759 1228 1600 
Q 959 1441 959 1056 
Q 959 750 1161 570 
Q 1363 391 1709 391 
Q 2188 391 2477 730 
Q 2766 1069 2766 1631 
L 2766 1759 
L 2194 1759 
z
M 3341 1997 
L 3341 0 
L 2766 0 
L 2766 531 
Q 2569 213 2275 61 
Q 1981 -91 1556 -91 
Q 1019 -91 701 211 
Q 384 513 384 1019 
Q 384 1609 779 1909 
Q 1175 2209 1959 2209 
L 2766 2209 
L 2766 2266 
Q 2766 2663 2505 2880 
Q 2244 3097 1772 3097 
Q 1472 3097 1187 3025 
Q 903 2953 641 2809 
L 641 3341 
Q 956 3463 1253 3523 
Q 1550 3584 1831 3584 
Q 2591 3584 2966 3190 
Q 3341 2797 3341 1997 
z
" transform="scale(0.015625)"/>
      </defs>
      <use xlink:href="#DejaVuSans-44"/>
      <use xlink:href="#DejaVuSans-61" x="77.001953"/>
      <use xlink:href="#DejaVuSans-74" x="138.28125"/>
      <use xlink:href="#DejaVuSans-61" x="177.490234"/>
     </g>
    </g>
   </g>
  </g>
 </g>
 <defs>
  <clipPath id="pcdd5a61d5a">
   <rect x="30.103125" y="7.618083" width="357.12" height="266.112"/>
  </clipPath>
 </defs>
</svg>